<svg width="16" height="8" viewBox="0 0 16 8" fill="none" xmlns="http://www.w3.org/2000/svg">
<path d="M0.183312 3.43259C0.1835 3.4324 0.183657 3.43218 0.183875 3.43199L3.44963 0.181998C3.69428 -0.0614707 4.09 -0.0605647 4.33353 0.184123C4.57703 0.428779 4.57609 0.824497 4.33144 1.068L2.13881 3.24999H15.375C15.7202 3.24999 16 3.52981 16 3.87499C16 4.22018 15.7202 4.49999 15.375 4.49999H2.13884L4.33141 6.68199C4.57606 6.92549 4.577 7.32121 4.3335 7.56586C4.08997 7.81058 3.69422 7.81143 3.44959 7.56799L0.183844 4.31799C0.183656 4.31781 0.183499 4.31759 0.183281 4.3174C-0.0615005 4.07309 -0.0607185 3.67609 0.183312 3.43259Z" fill="#212124"/>
</svg>
