<svg width="16" height="17" viewBox="0 0 16 17" fill="none" xmlns="http://www.w3.org/2000/svg">
<path fill-rule="evenodd" clip-rule="evenodd" d="M14.4 9C14.4 5.46538 11.5346 2.6 8 2.6C4.46538 2.6 1.6 5.46538 1.6 9C1.6 12.5346 4.46538 15.4 8 15.4C11.5346 15.4 14.4 12.5346 14.4 9ZM10.9657 6.83431C10.6533 6.52189 10.1467 6.52189 9.83432 6.83431L7.2 9.468L6.16568 8.43431L6.09032 8.36776C5.77649 8.12374 5.3227 8.14593 5.03431 8.43431C4.72189 8.74673 4.72189 9.25327 5.03431 9.56568L6.63431 11.1657L6.70968 11.2322C7.02351 11.4763 7.4773 11.4541 7.76569 11.1657L10.9657 7.96569L11.0322 7.89032C11.2763 7.57649 11.2541 7.1227 10.9657 6.83431Z" fill="#006EB6"/>
</svg>
