<svg width="23" height="18" viewBox="0 0 23 18" fill="none" xmlns="http://www.w3.org/2000/svg">
<path fill-rule="evenodd" clip-rule="evenodd" d="M0.666504 15.5002C0.666504 16.6968 1.63655 17.6668 2.83317 17.6668H20.1665C21.3631 17.6668 22.3332 16.6968 22.3332 15.5002V2.50016C22.3332 1.30355 21.3631 0.333497 20.1665 0.333497H2.83317C1.67241 0.332399 0.716996 1.24626 0.666504 2.40591V15.5002ZM2.80609 16.0418L3.34775 5.2085L3.9165 3.5835H19.0832L19.5978 5.2085L20.1394 16.0418H2.80609Z" fill="white"/>
<path d="M3.9165 3.5835L11.5811 8.24183L19.0832 3.5835H3.9165Z" fill="white"/>
<path d="M3.34775 5.2085L2.80609 16.0418H20.1394L19.5978 5.2085L11.4728 10.8418L3.34775 5.2085Z" fill="white"/>
</svg>
