<svg width="20" height="21" viewBox="0 0 20 21" fill="none" xmlns="http://www.w3.org/2000/svg">
<path d="M18.4555 20.1668C8.14642 20.1814 0.322479 12.2637 0.333508 2.04486C0.333508 1.37752 0.874497 0.833496 1.54184 0.833496H4.73107C5.32988 0.833496 5.83858 1.27349 5.92651 1.86581C6.13725 3.28544 6.55058 4.6675 7.15392 5.96976L7.27808 6.23777C7.45074 6.61043 7.33371 7.0532 6.99948 7.29188C6.01182 7.99721 5.63436 9.41696 6.4038 10.5248C7.36935 11.9149 8.58647 13.1318 9.97632 14.0969C11.0841 14.8661 12.5036 14.4887 13.2089 13.5012C13.4477 13.1668 13.8908 13.0497 14.2636 13.2225L14.5304 13.3461C15.8328 13.9493 17.2149 14.3627 18.6347 14.5734C19.2271 14.6613 19.6668 15.17 19.6668 15.7688V18.9585C19.6668 19.6258 19.1245 20.1668 18.4572 20.1668L18.4555 20.1668Z" fill="white"/>
</svg>
