<svg width="18" height="23" viewBox="0 0 18 23" fill="none" xmlns="http://www.w3.org/2000/svg">
<path d="M8.99984 22.3751C7.47363 21.0733 6.05898 19.6461 4.77067 18.1085C2.83734 15.7993 0.541505 12.3604 0.541505 9.08342C0.539791 5.66088 2.6008 2.5746 5.7628 1.26478C8.92479 -0.0450451 12.5645 0.679757 14.9835 3.10097C16.5742 4.68462 17.4653 6.83881 17.4582 9.08342C17.4582 12.3604 15.1623 15.7993 13.229 18.1085C11.9407 19.6461 10.526 21.0733 8.99984 22.3751ZM8.99984 5.45842C7.70475 5.45842 6.50804 6.14935 5.8605 7.27092C5.21295 8.3925 5.21295 9.77435 5.8605 10.8959C6.50804 12.0175 7.70475 12.7084 8.99984 12.7084C11.0019 12.7084 12.6248 11.0855 12.6248 9.08342C12.6248 7.08139 11.0019 5.45842 8.99984 5.45842Z" fill="white"/>
</svg>
