<svg width="158" height="11" viewBox="0 0 158 11" fill="none" xmlns="http://www.w3.org/2000/svg">
<path d="M23.96 1.40604C16.2941 4.06519 6.57324 2.66296 2.42262 3.87526C-3.25718 5.26076 2.28727 7.29421 6.43789 7.29421C10.5885 7.29421 12.6438 7.12505 16.2426 8.33736C19.5031 9.43568 21.5427 8.51054 25.9118 7.12505C30.2808 5.73956 38.3676 7.04795 46.228 7.64461C55.3541 8.33736 59.9032 6.77645 67.0356 8.85692C73.3653 10.7033 80.1387 6.73311 91.1722 8.2439C98.1079 9.19359 102.465 7.40038 110.111 6.53444C117.757 5.66851 125.02 7.54553 130.919 10.1433C136.817 12.7411 148.452 8.68373 152.821 7.8178C157.19 6.95186 158.878 5.88085 157.567 5.01491C156.256 4.14898 152.339 4.52725 141.635 5.73955C130.931 6.95186 127.217 1.2367 116.513 1.40989C105.809 1.58308 101.44 3.48813 91.1722 4.52725C80.9049 5.56637 68.5447 5.08757 59.3696 3.87526C50.1945 2.66296 35.0129 -2.42795 23.96 1.40604Z" fill="#E2E2E2"/>
</svg>
