<svg width="23" height="10" viewBox="0 0 23 10" fill="none" xmlns="http://www.w3.org/2000/svg">
<path fill-rule="evenodd" clip-rule="evenodd" d="M22.5 4.82425V5.20312C20.3522 5.66957 18.7929 7.84191 18.1519 9.99998C18.1515 10.0014 17.8876 9.91118 17.8798 9.90853C17.8719 9.90587 17.8885 9.90987 17.889 9.90823C18.3747 8.25732 18.9082 6.42857 20.2551 5.2381C16.8174 5.31835 14.4616 5.44599 11.6196 5.46045L11.6189 5.46045C8.31789 5.47724 5.01954 5.49403 0.792564 5.61373L0.5 5.62201V4.38272L20.2551 4.7619C18.9082 3.57143 18.3787 1.76085 17.889 0.091782C17.889 0.091782 17.6078 0.184079 17.8797 0.0920831C18.1517 8.67744e-05 18.1516 0 18.1516 0C18.787 2.16232 20.3518 4.35771 22.5 4.82425Z" fill="white"/>
</svg>
