<svg width="21" height="20" viewBox="0 0 21 20" fill="none" xmlns="http://www.w3.org/2000/svg">
<path fill-rule="evenodd" clip-rule="evenodd" d="M10.5 0C4.97715 0 0.5 4.47715 0.5 10C0.5 15.5228 4.97715 20 10.5 20C16.0228 20 20.5 15.5228 20.5 10C20.5 4.47715 16.0228 0 10.5 0ZM10.5 2C14.9183 2 18.5 5.58172 18.5 10C18.5 14.4183 14.9183 18 10.5 18C6.08172 18 2.5 14.4183 2.5 10C2.5 5.58172 6.08172 2 10.5 2ZM14.2071 7.29289C13.8166 6.90237 13.1834 6.90237 12.7929 7.29289L9.5 10.585L8.20711 9.29289L8.1129 9.2097C7.72061 8.90468 7.15338 8.93241 6.79289 9.29289C6.40237 9.68342 6.40237 10.3166 6.79289 10.7071L8.79289 12.7071L8.8871 12.7903C9.27939 13.0953 9.84662 13.0676 10.2071 12.7071L14.2071 8.70711L14.2903 8.6129C14.5953 8.22061 14.5676 7.65338 14.2071 7.29289Z" fill="#577E56"/>
</svg>
