<svg width="20" height="20" viewBox="0 0 20 20" fill="none" xmlns="http://www.w3.org/2000/svg">
<path fill-rule="evenodd" clip-rule="evenodd" d="M10 0C4.47715 0 0 4.47715 0 10C0 15.5228 4.47715 20 10 20C15.5228 20 20 15.5228 20 10C20 4.47715 15.5228 0 10 0ZM10 2C14.4183 2 18 5.58172 18 10C18 14.4183 14.4183 18 10 18C5.58172 18 2 14.4183 2 10C2 5.58172 5.58172 2 10 2ZM13.7071 7.29289C13.3166 6.90237 12.6834 6.90237 12.2929 7.29289L9 10.585L7.70711 9.29289L7.6129 9.2097C7.22061 8.90468 6.65338 8.93241 6.29289 9.29289C5.90237 9.68342 5.90237 10.3166 6.29289 10.7071L8.29289 12.7071L8.3871 12.7903C8.77939 13.0953 9.34662 13.0676 9.70711 12.7071L13.7071 8.70711L13.7903 8.6129C14.0953 8.22061 14.0676 7.65338 13.7071 7.29289Z" fill="#B38876"/>
</svg>
